<mxfile host="65bd71144e">
    <diagram id="q3GHa5FDCBVNJ26OGZ3h" name="Page-1">
        <mxGraphModel dx="979" dy="549" grid="1" gridSize="10" guides="1" tooltips="1" connect="1" arrows="1" fold="1" page="1" pageScale="1" pageWidth="850" pageHeight="1100" math="0" shadow="0">
            <root>
                <mxCell id="0"/>
                <mxCell id="1" parent="0"/>
                <mxCell id="17" value="boleto&#10;" style="swimlane;fontStyle=1;align=center;verticalAlign=top;childLayout=stackLayout;horizontal=1;startSize=26;horizontalStack=0;resizeParent=1;resizeParentMax=0;resizeLast=0;collapsible=1;marginBottom=0;" parent="1" vertex="1">
                    <mxGeometry x="50" y="340" width="180" height="290" as="geometry"/>
                </mxCell>
                <mxCell id="18" value="- IdBoleto:int&#10;- ValorBoleto: int&#10;- Vencimento: String&#10;- Pagador: Aluno&#10;- pago: Boolean" style="text;strokeColor=none;fillColor=none;align=left;verticalAlign=top;spacingLeft=4;spacingRight=4;overflow=hidden;rotatable=0;points=[[0,0.5],[1,0.5]];portConstraint=eastwest;" parent="17" vertex="1">
                    <mxGeometry y="26" width="180" height="84" as="geometry"/>
                </mxCell>
                <mxCell id="19" value="" style="line;strokeWidth=1;fillColor=none;align=left;verticalAlign=middle;spacingTop=-1;spacingLeft=3;spacingRight=3;rotatable=0;labelPosition=right;points=[];portConstraint=eastwest;strokeColor=inherit;" parent="17" vertex="1">
                    <mxGeometry y="110" width="180" height="8" as="geometry"/>
                </mxCell>
                <mxCell id="20" value="+ setIdBoleto(int):void&#10;+ getIdBoleto(void):int&#10;+ setvalorBoleto(int):void&#10;+ getvalorBoleto(void):int&#10;+ setVencimento(string):void&#10;+ getVencimento(void):string&#10;+ setPagador(Aluno):void&#10;+ getPagador(void):Aluno&#10;+ setPago(boolean):void&#10;+ getPago(void):Boolean&#10;+ toString(void):String" style="text;strokeColor=none;fillColor=none;align=left;verticalAlign=top;spacingLeft=4;spacingRight=4;overflow=hidden;rotatable=0;points=[[0,0.5],[1,0.5]];portConstraint=eastwest;" parent="17" vertex="1">
                    <mxGeometry y="118" width="180" height="172" as="geometry"/>
                </mxCell>
                <mxCell id="9" value="Aluno" style="swimlane;fontStyle=1;align=center;verticalAlign=top;childLayout=stackLayout;horizontal=1;startSize=26;horizontalStack=0;resizeParent=1;resizeParentMax=0;resizeLast=0;collapsible=1;marginBottom=0;rounded=0;shadow=0;glass=0;sketch=0;" parent="1" vertex="1">
                    <mxGeometry x="80" y="60" width="150" height="240" as="geometry"/>
                </mxCell>
                <mxCell id="10" value="- nome: String&#10;- idade: int&#10;- ativo: boolean&#10;- matrícula: int" style="text;strokeColor=none;fillColor=none;align=left;verticalAlign=top;spacingLeft=4;spacingRight=4;overflow=hidden;rotatable=0;points=[[0,0.5],[1,0.5]];portConstraint=eastwest;rounded=0;shadow=0;glass=0;sketch=0;" parent="9" vertex="1">
                    <mxGeometry y="26" width="150" height="64" as="geometry"/>
                </mxCell>
                <mxCell id="11" value="" style="line;strokeWidth=1;fillColor=none;align=left;verticalAlign=middle;spacingTop=-1;spacingLeft=3;spacingRight=3;rotatable=0;labelPosition=right;points=[];portConstraint=eastwest;strokeColor=inherit;rounded=0;shadow=0;glass=0;sketch=0;" parent="9" vertex="1">
                    <mxGeometry y="90" width="150" height="8" as="geometry"/>
                </mxCell>
                <mxCell id="12" value="+ setNome(String): void&#10;+ getNome(void):String&#10;+ setIdade(int):void&#10;+ getIdade(void):int&#10;+ setAtivo(boolean):void&#10;+ getAtivo(void):boolean&#10;+ setMatricula(int):void&#10;+ getMatricula(void):int&#10;+ toString(void):String" style="text;strokeColor=none;fillColor=none;align=left;verticalAlign=top;spacingLeft=4;spacingRight=4;overflow=hidden;rotatable=0;points=[[0,0.5],[1,0.5]];portConstraint=eastwest;rounded=0;shadow=0;glass=0;sketch=0;" parent="9" vertex="1">
                    <mxGeometry y="98" width="150" height="142" as="geometry"/>
                </mxCell>
                <mxCell id="13" value="Professor" style="swimlane;fontStyle=1;align=center;verticalAlign=top;childLayout=stackLayout;horizontal=1;startSize=26;horizontalStack=0;resizeParent=1;resizeParentMax=0;resizeLast=0;collapsible=1;marginBottom=0;rounded=0;shadow=0;glass=0;sketch=0;" parent="1" vertex="1">
                    <mxGeometry x="300" y="60" width="160" height="240" as="geometry">
                        <mxRectangle x="300" y="60" width="100" height="30" as="alternateBounds"/>
                    </mxGeometry>
                </mxCell>
                <mxCell id="14" value="- nome: String&#10;- idade:int&#10;- idiomas:ArrayList&lt;String&gt;&#10;- id:int&#10;" style="text;strokeColor=none;fillColor=none;align=left;verticalAlign=top;spacingLeft=4;spacingRight=4;overflow=hidden;rotatable=0;points=[[0,0.5],[1,0.5]];portConstraint=eastwest;rounded=0;shadow=0;glass=0;sketch=0;" parent="13" vertex="1">
                    <mxGeometry y="26" width="160" height="64" as="geometry"/>
                </mxCell>
                <mxCell id="15" value="" style="line;strokeWidth=1;fillColor=none;align=left;verticalAlign=middle;spacingTop=-1;spacingLeft=3;spacingRight=3;rotatable=0;labelPosition=right;points=[];portConstraint=eastwest;strokeColor=inherit;rounded=0;shadow=0;glass=0;sketch=0;" parent="13" vertex="1">
                    <mxGeometry y="90" width="160" height="8" as="geometry"/>
                </mxCell>
                <mxCell id="16" value="+ setNome(String): void&#10;+ getNome(void): String&#10;+ setIdade(int):void&#10;+ getIdade(void):int&#10;+ setIdiomas(String):void&#10;+ getIdiomas(void):Arraylist&#10;+ setId(int):void&#10;+ getId(void):int&#10;+ toString(void):String" style="text;strokeColor=none;fillColor=none;align=left;verticalAlign=top;spacingLeft=4;spacingRight=4;overflow=hidden;rotatable=0;points=[[0,0.5],[1,0.5]];portConstraint=eastwest;rounded=0;shadow=0;glass=0;sketch=0;" parent="13" vertex="1">
                    <mxGeometry y="98" width="160" height="142" as="geometry"/>
                </mxCell>
                <mxCell id="51" value="Turma&#10;" style="swimlane;fontStyle=1;align=center;verticalAlign=top;childLayout=stackLayout;horizontal=1;startSize=26;horizontalStack=0;resizeParent=1;resizeParentMax=0;resizeLast=0;collapsible=1;marginBottom=0;" parent="1" vertex="1">
                    <mxGeometry x="280" y="340" width="160" height="200" as="geometry"/>
                </mxCell>
                <mxCell id="52" value="- codigoTurma: int&#10;- alunos: Arraylist&lt;Aluno&gt;&#10;- aulas: Arraylist&lt;Aula&gt; " style="text;strokeColor=none;fillColor=none;align=left;verticalAlign=top;spacingLeft=4;spacingRight=4;overflow=hidden;rotatable=0;points=[[0,0.5],[1,0.5]];portConstraint=eastwest;" parent="51" vertex="1">
                    <mxGeometry y="26" width="160" height="54" as="geometry"/>
                </mxCell>
                <mxCell id="53" value="" style="line;strokeWidth=1;fillColor=none;align=left;verticalAlign=middle;spacingTop=-1;spacingLeft=3;spacingRight=3;rotatable=0;labelPosition=right;points=[];portConstraint=eastwest;strokeColor=inherit;" parent="51" vertex="1">
                    <mxGeometry y="80" width="160" height="8" as="geometry"/>
                </mxCell>
                <mxCell id="54" value="+ setCodigoturma(int):void&#10;+ getCodigoturma(void):int&#10;+ setAlunos(Arraylist):void&#10;+ getAlunos(void):Arraylist&#10;+ setAulas(Arraylist):void&#10;+ getAulas(void):Arraylist&#10;+ toString(void):String" style="text;strokeColor=none;fillColor=none;align=left;verticalAlign=top;spacingLeft=4;spacingRight=4;overflow=hidden;rotatable=0;points=[[0,0.5],[1,0.5]];portConstraint=eastwest;" parent="51" vertex="1">
                    <mxGeometry y="88" width="160" height="112" as="geometry"/>
                </mxCell>
                <mxCell id="70" style="edgeStyle=none;html=1;entryX=0.526;entryY=1;entryDx=0;entryDy=0;entryPerimeter=0;shape=link;" parent="1" source="56" target="66" edge="1">
                    <mxGeometry relative="1" as="geometry">
                        <Array as="points">
                            <mxPoint x="660" y="705"/>
                        </Array>
                    </mxGeometry>
                </mxCell>
                <mxCell id="71" value="1" style="edgeLabel;html=1;align=center;verticalAlign=middle;resizable=0;points=[];" parent="70" vertex="1" connectable="0">
                    <mxGeometry x="-0.9002" y="-5" relative="1" as="geometry">
                        <mxPoint as="offset"/>
                    </mxGeometry>
                </mxCell>
                <mxCell id="56" value="escola de idiomas" style="html=1;" parent="1" vertex="1">
                    <mxGeometry x="440" y="680" width="110" height="50" as="geometry"/>
                </mxCell>
                <mxCell id="58" value="1" style="endArrow=open;html=1;endSize=12;startArrow=diamondThin;startSize=14;startFill=0;edgeStyle=orthogonalEdgeStyle;align=left;verticalAlign=bottom;shape=link;entryX=1;entryY=0.5;entryDx=0;entryDy=0;" parent="1" source="56" target="52" edge="1">
                    <mxGeometry x="-1" y="3" relative="1" as="geometry">
                        <mxPoint x="550" y="430" as="sourcePoint"/>
                        <mxPoint x="710" y="430" as="targetPoint"/>
                    </mxGeometry>
                </mxCell>
                <mxCell id="59" value="1" style="endArrow=open;html=1;endSize=12;startArrow=diamondThin;startSize=14;startFill=0;edgeStyle=orthogonalEdgeStyle;align=left;verticalAlign=bottom;shape=link;exitX=0;exitY=0.5;exitDx=0;exitDy=0;entryX=1;entryY=0.5;entryDx=0;entryDy=0;width=-2.413793103448276;" parent="1" source="56" target="20" edge="1">
                    <mxGeometry x="-1" y="3" relative="1" as="geometry">
                        <mxPoint x="570" y="460" as="sourcePoint"/>
                        <mxPoint x="730" y="460" as="targetPoint"/>
                        <Array as="points">
                            <mxPoint x="440" y="670"/>
                            <mxPoint x="560" y="670"/>
                            <mxPoint x="560" y="620"/>
                            <mxPoint x="260" y="620"/>
                            <mxPoint x="260" y="580"/>
                            <mxPoint x="230" y="580"/>
                        </Array>
                    </mxGeometry>
                </mxCell>
                <mxCell id="61" value="1" style="endArrow=open;html=1;endSize=12;startArrow=diamondThin;startSize=14;startFill=0;edgeStyle=orthogonalEdgeStyle;align=left;verticalAlign=bottom;shape=link;entryX=1;entryY=0.5;entryDx=0;entryDy=0;exitX=0.5;exitY=0;exitDx=0;exitDy=0;" parent="1" source="56" target="14" edge="1">
                    <mxGeometry x="-1" y="3" relative="1" as="geometry">
                        <mxPoint x="350" y="230" as="sourcePoint"/>
                        <mxPoint x="510" y="230" as="targetPoint"/>
                        <Array as="points">
                            <mxPoint x="430" y="680"/>
                            <mxPoint x="430" y="590"/>
                            <mxPoint x="615" y="590"/>
                            <mxPoint x="615" y="350"/>
                            <mxPoint x="470" y="350"/>
                            <mxPoint x="470" y="118"/>
                        </Array>
                    </mxGeometry>
                </mxCell>
                <mxCell id="62" value="1" style="endArrow=open;html=1;endSize=12;startArrow=diamondThin;startSize=14;startFill=0;edgeStyle=orthogonalEdgeStyle;align=left;verticalAlign=bottom;shape=link;exitX=0.25;exitY=0;exitDx=0;exitDy=0;" parent="1" source="56" target="10" edge="1">
                    <mxGeometry x="-1" y="3" relative="1" as="geometry">
                        <mxPoint x="350" y="230" as="sourcePoint"/>
                        <mxPoint x="510" y="230" as="targetPoint"/>
                        <Array as="points">
                            <mxPoint x="467" y="650"/>
                            <mxPoint x="588" y="650"/>
                            <mxPoint x="588" y="320"/>
                            <mxPoint x="260" y="320"/>
                            <mxPoint x="260" y="118"/>
                        </Array>
                    </mxGeometry>
                </mxCell>
                <mxCell id="75" style="edgeStyle=none;html=1;entryX=0.999;entryY=0.166;entryDx=0;entryDy=0;entryPerimeter=0;endArrow=blockThin;endFill=0;" edge="1" parent="1" source="63" target="16">
                    <mxGeometry relative="1" as="geometry"/>
                </mxCell>
                <mxCell id="63" value="Aula" style="swimlane;fontStyle=1;align=center;verticalAlign=top;childLayout=stackLayout;horizontal=1;startSize=26;horizontalStack=0;resizeParent=1;resizeParentMax=0;resizeLast=0;collapsible=1;marginBottom=0;" parent="1" vertex="1">
                    <mxGeometry x="560" y="60" width="190" height="250" as="geometry"/>
                </mxCell>
                <mxCell id="64" value="- horario: String&#10;- numeroSala: int&#10;- turma: Turma&#10;- professor: Professor" style="text;strokeColor=none;fillColor=none;align=left;verticalAlign=top;spacingLeft=4;spacingRight=4;overflow=hidden;rotatable=0;points=[[0,0.5],[1,0.5]];portConstraint=eastwest;" parent="63" vertex="1">
                    <mxGeometry y="26" width="190" height="74" as="geometry"/>
                </mxCell>
                <mxCell id="65" value="" style="line;strokeWidth=1;fillColor=none;align=left;verticalAlign=middle;spacingTop=-1;spacingLeft=3;spacingRight=3;rotatable=0;labelPosition=right;points=[];portConstraint=eastwest;strokeColor=inherit;" parent="63" vertex="1">
                    <mxGeometry y="100" width="190" height="8" as="geometry"/>
                </mxCell>
                <mxCell id="66" value="+ setHorario(String):void&#10;+ getHorario(void):String&#10;+ setnumeroSala(int):void&#10;+ getnumeroSala(void):int&#10;+ setTurma(Turma):void&#10;+ getTurma(void):Turma&#10;+ setProfessor(Professor):void&#10;+ getProfessor(void):Professor&#10;+ toString(void):String" style="text;strokeColor=none;fillColor=none;align=left;verticalAlign=top;spacingLeft=4;spacingRight=4;overflow=hidden;rotatable=0;points=[[0,0.5],[1,0.5]];portConstraint=eastwest;" parent="63" vertex="1">
                    <mxGeometry y="108" width="190" height="142" as="geometry"/>
                </mxCell>
                <mxCell id="73" style="edgeStyle=none;html=1;entryX=1;entryY=0.5;entryDx=0;entryDy=0;endArrow=diamondThin;endFill=0;" edge="1" parent="1" source="54" target="12">
                    <mxGeometry relative="1" as="geometry">
                        <Array as="points">
                            <mxPoint x="250" y="500"/>
                        </Array>
                    </mxGeometry>
                </mxCell>
                <mxCell id="74" style="edgeStyle=none;html=1;entryX=-0.02;entryY=0.568;entryDx=0;entryDy=0;entryPerimeter=0;endArrow=diamondThin;endFill=0;exitX=1.014;exitY=0.331;exitDx=0;exitDy=0;exitPerimeter=0;" edge="1" parent="1" source="54" target="66">
                    <mxGeometry relative="1" as="geometry"/>
                </mxCell>
                <mxCell id="76" style="edgeStyle=none;html=1;entryX=0.5;entryY=0;entryDx=0;entryDy=0;endArrow=blockThin;endFill=0;" edge="1" parent="1" source="12" target="17">
                    <mxGeometry relative="1" as="geometry"/>
                </mxCell>
            </root>
        </mxGraphModel>
    </diagram>
</mxfile>